<svg xmlns="http://www.w3.org/2000/svg" viewBox="0 0 553.85 671.8"><defs><style>.cls-1,.cls-12,.cls-6{fill:#fff;}.cls-1{stroke:#1d1d1b;}.cls-1,.cls-7{stroke-miterlimit:10;}.cls-2{fill:#626166;}.cls-3{fill:#f0f0f0;}.cls-4{fill:#636267;}.cls-5{fill:#c8c5c6;}.cls-7{fill:none;stroke:#f9b233;stroke-width:7px;}.cls-8{fill:#f9b233;}.cls-9{fill:#36a9e1;opacity:0.54;}.cls-10{fill:#464649;}.cls-11{fill:#eb5b58;}.cls-12{opacity:0.21;}</style></defs><g id="Calque_2" data-name="Calque 2"><path class="cls-1" d="M267.58,529c-2.91-4.64-18.37-17.63-20.36-22.59s-10.18-30.54-29.05-34S179,462.5,136.49,493.78,60.14,547.92,53.32,610.72c-1.24,11.42,12.78,18.57,24.46,37.15C96.19,677.13,157.26,719.6,262,726s176.11-16.84,226.76-45.64,71.84-83.75,70.51-158.49c-20.85,18.06-12.91,20.51-42.21,22.8s-58.59-14.77-79-7-64.59,34.59-90.64,28.14S278.5,546.5,267.58,529Z" transform="translate(-21.02 -68.19)"/><path class="cls-2" d="M297.64,265.37C464,265,568.24,362.19,574.7,535.49S403.88,733.61,372.1,737.59s-143,7.44-213.76-28.06S9.12,615.56,22.53,513.71,90.1,265.86,297.64,265.37Z" transform="translate(-21.02 -68.19)"/><path class="cls-3" d="M297.64,283.74c171.82,0,251.24,112.34,259.68,224.5S524.54,672.73,429.7,706.3,230.92,727,202,719.71c-11.92-3-90.3-37.06-113-58.43C68,641.44,4,581.67,51.5,457S194.37,283.74,297.64,283.74Z" transform="translate(-21.02 -68.19)"/><path class="cls-4" d="M301.34,516c7.12.58,11.43-13.57.46-14S293.54,515.32,301.34,516Z" transform="translate(-21.02 -68.19)"/><path class="cls-4" d="M347.36,503.26c7.12.58,11.42-13.57.46-13.94S339.55,502.63,347.36,503.26Z" transform="translate(-21.02 -68.19)"/><path class="cls-4" d="M339.86,544.61c7.11.58,11.42-13.57.45-13.94S332.05,544,339.86,544.61Z" transform="translate(-21.02 -68.19)"/><path class="cls-4" d="M539.44,494c7.12.58,11.42-13.57.46-13.94S531.64,493.4,539.44,494Z" transform="translate(-21.02 -68.19)"/><path class="cls-4" d="M525.72,508.24c4.7,0,4.94,10.62-3.72,10.93S517.13,508.18,525.72,508.24Z" transform="translate(-21.02 -68.19)"/><path class="cls-4" d="M212.3,410.52s12.66,2.4,16.3-.82,29.92-36.91,71.86-27.31c15,4.88,24.72,21.27,24,26.31-8.11-2.64-16.46-12.16-37.57-8.27s-41.79,26-46.76,28.55C231.17,430.39,212.3,421.53,212.3,410.52Z" transform="translate(-21.02 -68.19)"/><path class="cls-4" d="M441.29,398.28c2.48,3.31,12.5-7.54,21.93-7.62a25.07,25.07,0,0,1,16.8,5.88c1.24,1.24,7.2,7.94,7.7,10.67s.91,4.06,3.06,4,7-3,8.77-8.2,5.55-15.64,6.71-16.8.91-5.13-.58-5.62-5.88,7-7.62,6.95-4.47-6.46-8.19-8.86-9.35-5.71-17.3-5.21-11.79-.21-24.49,13.57C444.19,391.24,439.26,395.57,441.29,398.28Z" transform="translate(-21.02 -68.19)"/><path class="cls-5" d="M538.45,552c2,4.47-3.85,35.22-9.81,36.21.45,1,.75,1.81,1,2.39-.87,1.52-5.49,7.42-6.58,8,2.52,1.24,2.15,2,2.77,2.23,2.73-.12,8.44.87,9.31.87-2.24,2.48-18.75,16.39-20.61,16.88,6.7.87,19.37,3.73,21.48,4.6-4.1,2.35-23.34,9.55-26.45,10.55,7.7-.25,17.38.12,21,0-3.1,3-34.76,23.71-37.61,25.32s-36.25,17.13-45.81,18c3-6.7,37.86-28.43,39.23-29.17,1.24.12,1.37-.13,2.36,0a49.36,49.36,0,0,1,6-2.73c-2.49-.37-8.07-1.37-8.82-1.37-1,1.37-3.72,1.74-4.71,2.48a4.51,4.51,0,0,1-1.49-2.85c-1.74.62-10.68.12-13.53.25,2-2.86,9.18-5.22,11.29-6-1.11-1.61.37-2.73.13-4.22,3,.12,6.2-.13,7.94.12,2.48-1.61,18.87-7.82,21.1-8.56-1.11-.62-1.36-.62-2.85-.38,0-.74-.75-1-.75-2-2.23.5-18.12,4-21.1,5.09,3.14-3.73,16.51-10.06,18.62-10.93,0-1,.13-.82.13-2.33,1.36-.52,2.85-1.27,4.59-.77,2-1.61,11.79-7.2,12.79-8.19-1.12-.87-6.46-6-14.4-5.34,4.09-2.73,14.89-6.95,16.63-8.07s1.7-2.61,2.94-3.68c.12-1.18.15-1.58.41-3.06C524.89,584.87,537.54,564.21,538.45,552Z" transform="translate(-21.02 -68.19)"/><path class="cls-5" d="M259.63,359.71c2.4-4.22,27.56-19.94,37.33-21.27s35.5-3.64,43.61,4.06c-7.36,4.38-46.84,11.09-52.47,11.09S267.66,356.23,259.63,359.71Z" transform="translate(-21.02 -68.19)"/><path class="cls-5" d="M392.59,336.81c1.86-4.47,12.16-8.63,20.11-8.13s15.76,3.91,19.36,6.89,16.88,8.06,19.12,8.87c-6.46.13-14.9-2.3-18.31-2.36s-12.73,1.06-16.64.93S396.31,341,392.59,336.81Z" transform="translate(-21.02 -68.19)"/><path class="cls-6" d="M301.72,440.34a20.56,20.56,0,0,0-2,12.72c4.22.5,18.44-5,23.34-7.26s12.16-6.27,15-7,7.32-.69,7.39-2.24-3.42-4.47-7.33-4.65-14.09,3.41-19,5.46S305.32,440,301.72,440.34Z" transform="translate(-21.02 -68.19)"/><path class="cls-6" d="M269.9,296.48c-4.56.09-7.62,2.49-10.93,2.57s-7-3.06-9.1-3-3.56,6.87-3.73,9.68c1.66,1.82,4.31,2.73,8.78,3.06s12.91-1.9,15.47-5.95c2.32-.09,4.47-1.16,4.47-2.4S272.71,296.57,269.9,296.48Z" transform="translate(-21.02 -68.19)"/><path class="cls-5" d="M240,330c.5-4,.25-12.25-3.81-14.65s-17-4.22-20.11-3.81-11.83,4.56-14.07,5.8c2.24,3.8,7.78,6.12,10.85,7s11.17-.58,14.23-.33S237.37,327.85,240,330Z" transform="translate(-21.02 -68.19)"/><path class="cls-5" d="M147.58,335.13c4.63,2,57.93,12.25,60.83,12.25.33-3.56-10.43-18.12-28.64-19.45S155.44,330,147.58,335.13Z" transform="translate(-21.02 -68.19)"/><path class="cls-5" d="M171,366.25c-8.19,1.65-48,2.4-57.1-7C118.86,351.43,158.17,348,171,366.25Z" transform="translate(-21.02 -68.19)"/><path class="cls-4" d="M473.9,429.13c8.61,5.89,3.72,31.38-2.49,38.58,1.74,8.44,4.74,48.17,3.37,53.63,6.32.25,34.87,12.91,43.81,11.42s27.14-6,33.27-38.71c2.23-11.94-4-42.48-11.18-49.93S519.08,427,515.36,425.5c4.72-3.22,21.39,2,24.23,4.72s19,22.35,21.7,42.95,2.48,40-2,48.66-16.38,26.07-31.78,30c-1,7.2-12.16,20.11-15.14,22.59s-8.94,7.7-13.66,9.43c-.49-6,8.45-12.66,11.67-14.89s3.73-10.93,3.73-15.4c-6,1.25-23.84-2-30.29-4s-45.93-1.24-63.31,6.7-44.93,22.1-66,20.61-60.09-15.14-70.76-26.07-19.12-20.6-18.62-28c3.47,5.46,24.58,23.09,39.22,26.56s44.94,8.94,65.8,3.73,69.54-33.89,87.64-32.78c1.24-9.93,10.18-34.26,7.45-49.65-9.19-10.43-22.47-31-43.45-29.55-7.2.5-2-12.11,9.68-12s17.63.64,24.33,0S468,425.05,473.9,429.13Z" transform="translate(-21.02 -68.19)"/><path class="cls-6" d="M221.48,308.85c-4.22,3.11-51.29,11.42-111.31,96-9.68,13.65-53.38,82.18-55.11,148-7-6.21-7.73-79.14,36-139.53S172.57,314.84,221.48,308.85Z" transform="translate(-21.02 -68.19)"/><path class="cls-7" d="M268.39,352.91c40.53-.52,59,37.34,59,56.08,0,30.91-25.88,60.91-59.83,60.42-33.45-.49-55.86-27.89-58.1-53.59C206.89,386.05,228.73,353.42,268.39,352.91Z" transform="translate(-21.02 -68.19)"/><path class="cls-8" d="M243.17,478c7.11.58,11.42-13.58.45-14S235.36,477.33,243.17,478Z" transform="translate(-21.02 -68.19)"/><path class="cls-8" d="M236.19,504.85c7.12.58,11.42-13.58.45-14S228.38,504.21,236.19,504.85Z" transform="translate(-21.02 -68.19)"/><path class="cls-8" d="M229.21,527.18c7.12.58,11.42-13.57.45-13.95S221.4,526.54,229.21,527.18Z" transform="translate(-21.02 -68.19)"/><path class="cls-8" d="M222.23,549.51c7.12.58,11.42-13.57.45-14S214.42,548.87,222.23,549.51Z" transform="translate(-21.02 -68.19)"/><path class="cls-8" d="M215.25,571.84c7.12.58,11.42-13.57.45-14S207.44,571.2,215.25,571.84Z" transform="translate(-21.02 -68.19)"/><path class="cls-8" d="M208.27,594.17c7.12.58,11.42-13.57.45-13.94S200.46,593.54,208.27,594.17Z" transform="translate(-21.02 -68.19)"/><path class="cls-8" d="M201.29,616.5c7.12.58,11.42-13.57.45-13.94S193.48,615.87,201.29,616.5Z" transform="translate(-21.02 -68.19)"/><path class="cls-8" d="M190.34,638.83c7.11.58,11.42-13.57.45-13.94S182.53,638.2,190.34,638.83Z" transform="translate(-21.02 -68.19)"/><path class="cls-8" d="M173.37,659.18c7.12.58,11.42-13.58.46-13.95S165.56,658.54,173.37,659.18Z" transform="translate(-21.02 -68.19)"/><path class="cls-8" d="M153.21,676.51c7.11.58,11.42-13.57.45-14S145.4,675.87,153.21,676.51Z" transform="translate(-21.02 -68.19)"/></g><g id="Calque_3" data-name="Calque 3"><circle class="cls-9" cx="247.36" cy="343" r="55.46"/><path class="cls-10" d="M76.49,327.64c-3.33,13.68,61.74,43.82,181.57-2.19s134.27-93.07,126.12-102.84c-5.62-6.73-41.7,7.17-53.95,8.49S82.61,302.46,76.49,327.64Z" transform="translate(-21.02 -68.19)"/><path class="cls-2" d="M65.07,146c5,14.23,63.23,170.48,64.22,171.47C151,325.41,303.74,281.09,335.86,249c-3-11.45-49-168.17-51-176.11C275.94,75.52,72,143.05,65.07,146Z" transform="translate(-21.02 -68.19)"/><path class="cls-10" d="M65.07,146c-2,27.8,236.36-50.32,219.81-73.16S67.16,116.76,65.07,146Z" transform="translate(-21.02 -68.19)"/><path class="cls-11" d="M119.7,292.72c2.68,7.08,7.6,20.15,9.59,24.78,31.78,7.29,188-41.38,206.57-68.52-5.94-20.86-3.77-13.39-7.35-25.71C315,237.53,176.76,299.12,119.7,292.72Z" transform="translate(-21.02 -68.19)"/><path class="cls-12" d="M274.29,88.09C278,99.77,323,252.6,325.34,258.44c7.92-5.6,8.62-7.09,10.52-9.46-1-4.3-48.92-168.54-50.18-173.18C282.24,81.69,279.25,84.94,274.29,88.09Z" transform="translate(-21.02 -68.19)"/></g></svg>